<svg width="56" height="56" viewBox="0 0 56 56" fill="none" xmlns="http://www.w3.org/2000/svg">
<path d="M28 56C12.536 56 0 43.464 0 28C0 12.536 12.536 0 28 0C43.464 0 56 12.536 56 28C56 43.464 43.464 56 28 56Z" fill="url(#paint0_linear_84_16)"/>
<path d="M7.95496 28.3411H12.891C12.891 18.2819 21.0741 10.1277 31.1693 10.1277C41.1393 10.1277 49.2451 18.0823 49.4435 27.9692C49.6488 38.1892 40.0264 47.0639 29.7688 47.0639H28.4785C19.4351 47.0639 7.31426 40.0097 5.42047 31.4147C5.0708 29.8304 6.32668 28.3411 7.95496 28.3411ZM38.5044 28.7893C38.5044 30.1345 39.6086 31.2347 40.9586 31.2347C42.3086 31.2347 43.4127 30.134 43.4127 28.7893V24.8332C43.4127 23.4881 42.3086 22.3878 40.9586 22.3878C39.6086 22.3878 38.5044 23.4881 38.5044 24.8332V28.7893ZM29.9829 28.7893C29.9829 30.1345 31.0869 31.2347 32.4368 31.2347C33.7869 31.2347 34.891 30.134 34.891 28.7893V24.8332C34.891 23.4881 33.7864 22.3878 32.4368 22.3878C31.0869 22.3878 29.9829 23.4881 29.9829 24.8332V28.7893Z" fill="url(#paint1_linear_84_16)"/>
<defs>
<linearGradient id="paint0_linear_84_16" x1="28" y1="0" x2="28" y2="56" gradientUnits="userSpaceOnUse">
<stop stop-color="#534BB1"/>
<stop offset="1" stop-color="#551BF9"/>
</linearGradient>
<linearGradient id="paint1_linear_84_16" x1="27.4043" y1="10.1277" x2="27.4043" y2="47.0639" gradientUnits="userSpaceOnUse">
<stop stop-color="white"/>
<stop offset="1" stop-color="white" stop-opacity="0.82"/>
</linearGradient>
</defs>
</svg>
