<svg width="24" height="24" viewBox="0 0 24 24" fill="none" xmlns="http://www.w3.org/2000/svg">
<path d="M18.4814 0.536959C25.9391 1.4767 23.7503 12.0552 23.5429 17.1827C23.4276 20.0021 22.9131 22.1824 19.9408 23.1597C16.0313 24.4454 10.2709 24.0168 6.28468 23.4455C3.61946 23.0695 1.53035 22.2876 0.793032 19.581C-0.374439 15.303 -0.0441548 9.51383 0.462749 5.15317C0.478165 5.0705 0.501123 5.0103 0.539497 4.95765C0.608536 -1.56808 14.6026 0.0483046 18.4814 0.536959Z" fill="white"/>
<path d="M21.5766 4.51434C21.592 2.71736 19.3031 2.14604 18.0742 3.25129C17.7439 3.55196 17.5902 4.0106 17.5673 4.5068C17.6901 5.14587 18.0819 5.7774 18.5888 6.13827C19.7794 6.95778 21.5612 5.86762 21.5766 4.51434Z" fill="#2D4265"/>
<path d="M18.1741 8.01046C15.5474 4.11599 9.61786 3.73248 6.43048 7.18341C4.25691 9.53662 4.10325 13.4537 5.73925 16.2356C5.83142 16.2656 5.91587 16.3182 5.99279 16.4085C8.6503 19.3105 13.2279 20.3631 16.5153 17.7317C19.4491 15.3785 20.3093 11.1756 18.1741 8.01046Z" fill="#2D4265"/>
<path d="M7.70556 13.3486C8.63491 15.9049 11.9376 17.9348 14.572 16.356C19.8945 13.1682 13.6426 4.50707 9.25694 8.34889C7.70556 9.24352 7.09878 11.6719 7.70556 13.3486Z" fill="white"/>
</svg>
